<svg xmlns="http://www.w3.org/2000/svg" viewBox="0 0 218.93 259.25"><title>hand</title><g style="isolation:isolate"><g id="Layer_5" data-name="Layer 5"><path d="M45.46,20.58c0,11.23-.05,28.08-8.62,28.08S10.12,31.81,10.12,20.58,21.25,2.12,29.51,7.15C36.83,11.6,45.46,9.35,45.46,20.58Z" fill="#fcddd0"/><path d="M25.35,5.64a10.92,10.92,0,0,1,4.16,1.51c7.32,4.45,16,2.2,16,13.43s-.05,28.08-8.62,28.08c-3,0-7.28-2.12-11.49-5.35Z" fill="#e5a67c"/><path d="M181.45,46.15c.62,3.15,10,21.82,14.84,29.27,2.51,3.86,4.05,32.88,12.7,50.7,3,6.2-2.36,65.34-10.11,78.65-6.34,10.89-1.57,54.48-1.57,54.48h-112S82.82,237.89,75,230.05c-27.47-27.69-46.7-68.94-46.84-69S156.65,103,156.65,103c1.91,3.86,3.62,14.66,5.18,14.49,1.39-.16,6.33-28.3,5.81-29-5.39-7-6.25-16-6.25-16s.43-20.52.43-28.76,3.59-14.35,9.62-14.35S178.13,29.35,181.45,46.15Z" fill="#fcddd0"/><path d="M156.65,103c1.91,3.86,3.62,14.66,5.18,14.49,1.24-.14,4-14.06,4.54-19.38h0l1.92,93s.22,8-3.3,10.88c-4.89,3.95-18.3,3.45-18.3,3.45l-58.86-1.79s-24.74-1.12-16.8,9.55c18.28,24.56,17.23,46.11,17.23,46.11h-3s-1.47-13.36-5.38-21.3c-4.13-8.41-17.2-21.1-23.45-29.63A314.65,314.65,0,0,1,28.2,161.05C28,160.94,156.65,103,156.65,103Z" fill="#e5a67c"/><path d="M25.2,100.29V59.68a10.63,10.63,0,0,1,2.3,1.07C32.89,64,33,82.62,29.06,91.8v9.63A12.54,12.54,0,0,1,25.2,100.29Z" fill="#e5a67c"/><path d="M25.2,131V90.33a11.67,11.67,0,0,1,2.3,1.07c5.39,3.28,5.52,21.88,1.56,31.06v9.63A12.82,12.82,0,0,1,25.2,131Z" fill="#e5a67c"/><path d="M27.08,154.09a.56.56,0,0,0-.65-.22c-.9-1.58-1.95-3.08-3-4.58a32.49,32.49,0,0,1-5.1-10.82c-.8-3.23-1.29-6.54-1.93-9.8,3-3.06,7.55-4.13,11.3-1.84,4.06,2.47,4.16,16.51,1.18,23.44l-.77,4.4C27.51,153.83,27.68,154.93,27.08,154.09Z" fill="#e5a67c"/><path d="M28.2,98.34c-11.08-1.29-20.95-20-20.95-27.18,0-11.23,11.13-18.46,19.39-13.43C32,61,32.16,79.56,28.2,88.73Z" fill="#fcddd0"/><path d="M28.2,128.94c-11.08-1.29-20.95-20-20.95-27.18,0-11.23,11.13-18.46,19.39-13.43,5.38,3.27,5.52,21.83,1.56,31Z" fill="#fcddd0"/><path d="M28.11,154.67c-8.37-1-15.82-15.06-15.82-20.52,0-8.47,8.4-13.93,14.64-10.13,4.06,2.47,4.16,16.48,1.18,23.4Z" fill="#fcddd0"/><g opacity="0.9" style="mix-blend-mode:multiply"><path d="M84.32,122.94h0v0h0Z" fill="#b5cee5"/></g><g style="mix-blend-mode:multiply"><path d="M81.51,124.61h-.05v0h.05Z" fill="#74ecf3"/><path d="M81.46,124.58h.05v0h-.05Z" fill="#a5c6e5" style="mix-blend-mode:multiply"/></g><g opacity="0.9" style="mix-blend-mode:multiply"><path d="M74.64,108.09h0v0h0Z" fill="#b5cee5"/></g><g style="mix-blend-mode:multiply"><path d="M72.47,109.37h0v0h0Z" fill="#74ecf3"/><path d="M72.43,109.35h0v0h0Z" fill="#a5c6e5" style="mix-blend-mode:multiply"/></g><path d="M16.46,131.46c0-3.51,2.16-6.38,3.72-6.39,3.31,0,3.31,0,3.37,6.76.06,6.65.14,5.94-3.57,6C18.41,137.81,16.49,135,16.46,131.46Z" fill="#fff"/><path d="M13.75,99.25c-.44-4.35,1.38-8.09,2.92-8.24,3.25-.33,3.25-.34,4.1,8.07.82,8.23.82,7.33-2.82,7.7C16.41,106.93,14.18,103.6,13.75,99.25Z" fill="#fff"/><path d="M15.41,66.69c-.21-4.44,1.24-8.11,2.38-8.16,2.41-.12,2.41-.13,2.8,8.46.4,8.41.41,7.5-2.28,7.62C17.17,74.67,15.62,71.13,15.41,66.69Z" fill="#fff"/></g></g></svg>