<svg xmlns="http://www.w3.org/2000/svg" xmlns:xlink="http://www.w3.org/1999/xlink" viewBox="0 0 157.94 270.73"><defs><linearGradient id="linear-gradient" x1="22.28" y1="146.6" x2="140.77" y2="146.6" gradientUnits="userSpaceOnUse"><stop offset="0" stop-color="#3e4b68"/><stop offset="0.03" stop-color="#556186"/><stop offset="0.06" stop-color="#6874a0"/><stop offset="0.1" stop-color="#7681b2"/><stop offset="0.14" stop-color="#7e89bc"/><stop offset="0.18" stop-color="#818cc0"/><stop offset="0.26" stop-color="#848bc0"/><stop offset="0.33" stop-color="#8f88c1"/><stop offset="0.39" stop-color="#a083c2"/><stop offset="0.45" stop-color="#b87cc3"/><stop offset="0.5" stop-color="#d474c5"/><stop offset="0.6" stop-color="#d173c3"/><stop offset="0.68" stop-color="#c670bd"/><stop offset="0.76" stop-color="#b56bb2"/><stop offset="0.83" stop-color="#9c65a2"/><stop offset="0.9" stop-color="#7d5c8f"/><stop offset="0.96" stop-color="#565277"/><stop offset="1" stop-color="#3e4b68"/></linearGradient><linearGradient id="linear-gradient-2" x1="21.85" y1="145.85" x2="141.2" y2="145.85" gradientUnits="userSpaceOnUse"><stop offset="0" stop-color="#3e4b68"/><stop offset="0.17" stop-color="#0ef"/><stop offset="0.25" stop-color="#26d9ff"/><stop offset="0.36" stop-color="#58bdff"/><stop offset="0.47" stop-color="#81a7ff"/><stop offset="0.58" stop-color="#a195ff"/><stop offset="0.68" stop-color="#b888ff"/><stop offset="0.77" stop-color="#c581ff"/><stop offset="0.86" stop-color="#ca7eff"/><stop offset="1" stop-color="#3e4b68"/></linearGradient><linearGradient id="linear-gradient-3" x1="21.95" y1="144.5" x2="141.09" y2="144.5" gradientUnits="userSpaceOnUse"><stop offset="0" stop-color="#3e4b68"/><stop offset="0.03" stop-color="#4b5f7c"/><stop offset="0.1" stop-color="#6385a4"/><stop offset="0.18" stop-color="#78a4c5"/><stop offset="0.25" stop-color="#88bddf"/><stop offset="0.33" stop-color="#93cef1"/><stop offset="0.41" stop-color="#9ad9fb"/><stop offset="0.5" stop-color="#9cdcff"/><stop offset="0.6" stop-color="#9ad9fc"/><stop offset="0.68" stop-color="#93cff1"/><stop offset="0.75" stop-color="#89bee0"/><stop offset="0.83" stop-color="#79a7c7"/><stop offset="0.9" stop-color="#6688a8"/><stop offset="0.96" stop-color="#4e6381"/><stop offset="1" stop-color="#3e4b68"/></linearGradient><linearGradient id="linear-gradient-4" x1="229.11" y1="151.96" x2="268.78" y2="151.96" gradientTransform="translate(12.94 -177.84) rotate(45)" gradientUnits="userSpaceOnUse"><stop offset="0" stop-color="#0ef"/><stop offset="0.13" stop-color="#25daff"/><stop offset="0.35" stop-color="#5fb9ff"/><stop offset="0.56" stop-color="#8da0ff"/><stop offset="0.75" stop-color="#ae8dff"/><stop offset="0.9" stop-color="#c382ff"/><stop offset="1" stop-color="#ca7eff"/></linearGradient><linearGradient id="linear-gradient-5" x1="227.87" y1="151.96" x2="270.02" y2="151.96" xlink:href="#linear-gradient-4"/><linearGradient id="linear-gradient-6" x1="226.94" y1="151.96" x2="270.95" y2="151.96" xlink:href="#linear-gradient-4"/><linearGradient id="linear-gradient-7" x1="225.39" y1="151.96" x2="272.5" y2="151.96" xlink:href="#linear-gradient-4"/><linearGradient id="linear-gradient-8" x1="226.16" y1="151.96" x2="271.73" y2="151.96" xlink:href="#linear-gradient-4"/><linearGradient id="linear-gradient-9" x1="230.22" y1="151.96" x2="267.67" y2="151.96" xlink:href="#linear-gradient-4"/></defs><title>phone-in-hand</title><g style="isolation:isolate"><g id="Layer_5" data-name="Layer 5"><path d="M150.63,231.78c.29,10.66-7.72,19.62-17.82,19.89l-97.18,2.68c-10.09.28-18.59-8.21-18.88-18.88L11.1,30.64C10.8,20,18.82,11,28.92,10.75l97.17-2.68c10.1-.28,18.6,8.22,18.89,18.88Z" fill="#fff"/><path d="M144,227.79c0,10.05-7.79,18.28-17.31,18.28H35.05c-9.52,0-17.31-8.23-17.31-18.28V34.64c0-10.06,7.79-18.28,17.31-18.28h91.63c9.52,0,17.31,8.22,17.31,18.28Z" fill="#44526b"/><path d="M140.74,146.43a12.72,12.72,0,0,0-7.39-2.11,13.54,13.54,0,0,0-4.6.72h0a16.27,16.27,0,0,0-3,1.53,14.44,14.44,0,0,1-3.87,1.78,13,13,0,0,1-3.31.39,12.23,12.23,0,0,1-7.18-2.17,13,13,0,0,0-7.64-2.25,14.28,14.28,0,0,0-3.4.37h0a14.23,14.23,0,0,0-4.24,1.88,13.53,13.53,0,0,1-4.35,1.89h0a13,13,0,0,1-2.82.28,12.27,12.27,0,0,1-7.19-2.17,13,13,0,0,0-7.63-2.25,14.47,14.47,0,0,0-3.14.31h0c-1.93.41-6.44,2.31-11.68,2.31-7,0-8-2.62-14.82-2.62a14.25,14.25,0,0,0-3.66.43h0a14.84,14.84,0,0,0-4,1.82,16,16,0,0,1-3,1.5h0a11.94,11.94,0,0,1-4.2.67,12,12,0,0,1-6.86-2l-.48,0h0a12.66,12.66,0,0,0,7.32,2.06,13.55,13.55,0,0,0,4.6-.71h0a17.25,17.25,0,0,0,3-1.53,14.14,14.14,0,0,1,3.87-1.78h0a13,13,0,0,1,3.31-.39,12.16,12.16,0,0,1,7.18,2.17,13,13,0,0,0,7.64,2.24,14.84,14.84,0,0,0,3.4-.36h0a14.48,14.48,0,0,0,4.24-1.88,13.54,13.54,0,0,1,4.35-1.9,13.71,13.71,0,0,1,2.82-.27,12.14,12.14,0,0,1,7.18,2.17,13,13,0,0,0,7.64,2.24c6.09,0,8.85-3.2,14.82-3.2,6.55,0,6.93,3.2,14.82,3.2a14.72,14.72,0,0,0,3.66-.42h0a14.84,14.84,0,0,0,4-1.82,16.6,16.6,0,0,1,3-1.51h0a12.18,12.18,0,0,1,4.2-.66,12,12,0,0,1,6.94,2l.48,0h0Z" fill="url(#linear-gradient)"/><path d="M107.62,133.16c-11.83,0-11.83,13-23.67,13s-11.83-16.85-23.67-16.85c-11.45,0-10.71,15.77-21.38,16.79a9.73,9.73,0,0,1-1.1.06H21.85v.8h0c.37,0,16.47,0,16.81,0,10.9.74,10.08,15.39,21.62,15.39C72.12,162.38,72.12,147,84,147s11.83,9.63,23.67,9.63c9.38,0,11.91-9.1,22-9.71.34,0,11.09,0,11.45,0s0-.77,0-.77c-.37,0-11.12,0-11.46,0C117,145.41,118,133.16,107.62,133.16Z" opacity="0.86" fill="url(#linear-gradient-2)"/><path d="M141.09,145.82h-3.33c-9,0-9-5.68-17.94-5.68s-9,5.68-17.94,5.68-9-12.4-17.94-12.4-9,12.4-17.94,12.4-9-7.91-17.94-7.91-9,7.91-17.94,7.91c-.27,0-7.91,0-8.17,0V147c.26,0,7.9,0,8.18,0,9,0,9,7.1,17.94,7.1s9-7.1,17.94-7.1,9,8.49,17.93,8.49,9-8.49,17.94-8.49,9,5.66,17.94,5.66,9-5.66,17.94-5.66h3.33Z" opacity="0.56" fill="url(#linear-gradient-3)"/><path d="M81.52,125.47a19.84,19.84,0,1,1,14-5.81A19.68,19.68,0,0,1,81.52,125.47Z" opacity="0.05" fill="url(#linear-gradient-4)"/><path d="M81.52,126.71a21.07,21.07,0,1,1,14.91-6.17A20.93,20.93,0,0,1,81.52,126.71Z" opacity="0.05" fill="url(#linear-gradient-5)"/><path d="M81.52,127.64a22,22,0,1,1,15.56-6.44A21.88,21.88,0,0,1,81.52,127.64Z" opacity="0.05" fill="url(#linear-gradient-6)"/><path d="M81.52,129.19a23.56,23.56,0,1,1,16.66-6.9A23.39,23.39,0,0,1,81.52,129.19Z" opacity="0.02" fill="url(#linear-gradient-7)"/><path d="M81.52,128.42a22.79,22.79,0,1,1,16.11-6.68A22.63,22.63,0,0,1,81.52,128.42Z" opacity="0.05" fill="url(#linear-gradient-8)"/><circle cx="81.52" cy="105.63" r="18.72" opacity="0.88" fill="url(#linear-gradient-9)"/><path d="M82.44,115.94v-4.23a7.14,7.14,0,0,1-1.53,0V116A6.53,6.53,0,0,1,82.44,115.94Z" fill="#f1fdff"/><path d="M87.4,100.38a.36.36,0,0,0-.35.36v5.05c0,2.59-2.37,4.7-5.28,4.7h-.49c-2.91,0-5.28-2.11-5.28-4.7v-5.05a.36.36,0,1,0-.71,0v5.05a5.73,5.73,0,0,0,6,5.41h.49c3.3,0,6-2.43,6-5.41v-5.05A.36.36,0,0,0,87.4,100.38Z" fill="#f1fdff"/><path d="M76.62,103.45c.09.06.74.46,4.29.5v.34a13.51,13.51,0,0,1-4.34-.48,4.13,4.13,0,0,0,1.82,3.26,2,2,0,0,0,.57-1.22c0-.11.06-.2.14-.2h0c.12,0,.18,0,.18.16a2.48,2.48,0,0,1-.6,1.44,3.85,3.85,0,0,0,.86.37c.5-.25.68-1.47.66-1.82,0-.13.2-.15.21,0a3.21,3.21,0,0,1-.51,1.93,4.28,4.28,0,0,0,.81.08h.65v-1.87c0-.13.08-.24.18-.24h0c.09,0,.17.11.17.24v1.87h.63a4.58,4.58,0,0,0,.83-.08,3.18,3.18,0,0,1-.52-1.93c0-.13.21-.11.21,0,0,.35.16,1.56.66,1.82a4.38,4.38,0,0,0,.86-.37,2.54,2.54,0,0,1-.59-1.44c0-.11.06-.16.17-.16h0c.09,0,.14.09.14.2a2.08,2.08,0,0,0,.57,1.22,4.19,4.19,0,0,0,1.82-3.26,13.62,13.62,0,0,1-4.35.48V104c3.56,0,4.21-.44,4.3-.5l0-.06v-.85a14,14,0,0,1-4.35.47v-.34c3.56,0,4.21-.44,4.3-.49l0-.06v-.81a13.43,13.43,0,0,1-4.28.47.72.72,0,0,0,.19-.34c3.33-.06,3.95-.44,4-.49l0-.06v-.78a13.86,13.86,0,0,1-4.3.48l0,0v-.29c3.56,0,4.21-.44,4.3-.5l0-.06V98.8a13.62,13.62,0,0,1-4.35.48v-.34c3.56,0,4.21-.44,4.3-.49a.1.1,0,0,1,0-.06v-.87a13.62,13.62,0,0,1-4.35.48v-.34c3.56,0,4.21-.44,4.3-.49l0,0a4.19,4.19,0,0,0-1.79-3,2,2,0,0,0-.59,1.24c0,.11,0,.2-.14.2h0c-.11,0-.17,0-.17-.16a2.5,2.5,0,0,1,.6-1.46,3.73,3.73,0,0,0-.89-.38h0c-.53.23-.7,1.48-.69,1.83,0,.13-.2.15-.21,0a3.18,3.18,0,0,1,.53-1.94h0a3.65,3.65,0,0,0-.88-.1H80.71a4.43,4.43,0,0,0-.9.1h.07a3.18,3.18,0,0,1,.53,1.94c0,.13-.21.11-.21,0,0-.35-.16-1.6-.69-1.83l.09,0a4.58,4.58,0,0,0-.94.4,2.5,2.5,0,0,1,.62,1.46c0,.11-.06.16-.18.16h0c-.08,0-.14-.09-.14-.2a2,2,0,0,0-.59-1.24,4.17,4.17,0,0,0-1.79,3,.1.1,0,0,1,0,0c.09,0,.74.45,4.29.49V98a13.62,13.62,0,0,1-4.35-.48v.87h0a.13.13,0,0,1,.06.07c.09,0,.74.45,4.29.49v.34a13.62,13.62,0,0,1-4.35-.48v.9h0a.17.17,0,0,1,.06.06c.09.06.74.46,4.29.5v.34a13.62,13.62,0,0,1-4.35-.48v.78h0a.12.12,0,0,1,.06.06c.09,0,.71.44,4.09.49a.81.81,0,0,0,.19.34,13.84,13.84,0,0,1-4.34-.47v.81h0a.17.17,0,0,1,.06.06c.09,0,.74.45,4.29.49V103a14,14,0,0,1-4.35-.47v.86h0A.17.17,0,0,1,76.62,103.45Zm4.94-2.64a.32.32,0,1,1-.32.32A.31.31,0,0,1,81.56,100.81Zm-.21-7.45h.35v1.89c0,.13-.08.23-.17.23h0a.21.21,0,0,1-.18-.23Z" fill="#f1fdff"/><path d="M81.68,116.71c-3,0-5.51.74-5.76,1.67H87.43C87.18,117.45,84.7,116.71,81.68,116.71Z" fill="#f1fdff"/><path d="M105.91,25.72a2.83,2.83,0,0,1-2.83,2.83H98.31a2.83,2.83,0,0,1-2.83-2.83h0a2.83,2.83,0,0,1,2.83-2.83h4.77a2.83,2.83,0,0,1,2.83,2.83Z" fill="#94d6d4" style="mix-blend-mode:multiply"/><path d="M51.42,25.72a2.83,2.83,0,0,1-2.83,2.83H33.76a2.83,2.83,0,0,1-2.83-2.83h0a2.83,2.83,0,0,1,2.83-2.83H48.59a2.83,2.83,0,0,1,2.83,2.83Z" fill="#94d6d4" style="mix-blend-mode:multiply"/><path d="M130.19,25.72a2.83,2.83,0,0,1-2.83,2.83H112.53a2.83,2.83,0,0,1-2.83-2.83h0a2.83,2.83,0,0,1,2.83-2.83h14.83a2.83,2.83,0,0,1,2.83,2.83Z" fill="#94d6d4" style="mix-blend-mode:multiply"/><path d="M144.17,171.78v-6.71l-11.92,10.2c-19.83,17-61.24,53.84-81.06,70.8h6.43C78.81,227.94,123,189.9,144.17,171.78Z" fill="#fff" opacity="0.11"/><path d="M128,16.43S53.12,16.36,35,16.36c-16.87,0-17.5,17.64-17.5,22.2v93.63C49.37,100.28,96.13,48.34,128,16.43Z" fill="#fff" opacity="0.11"/><g opacity="0.9" style="mix-blend-mode:multiply"><path d="M91.71,179.63h.05v0h-.05Z" fill="#b5cee5"/></g><g style="mix-blend-mode:multiply"><path d="M94.52,181.3h0v0h0Z" fill="#74ecf3"/><path d="M94.57,181.3h0v0h0Z" fill="#a5c6e5" style="mix-blend-mode:multiply"/></g><g opacity="0.9" style="mix-blend-mode:multiply"><path d="M101.4,164.77h0v0h0Z" fill="#b5cee5"/></g><g style="mix-blend-mode:multiply"><path d="M103.57,166.06h0v0h0Z" fill="#74ecf3"/><path d="M103.6,166.06h0v0h0Z" fill="#a5c6e5" style="mix-blend-mode:multiply"/></g><path d="M143.73,137.67V84c-1.66,1.4-125.86,115.09-125.86,115.09-.22.18-.25,20.32-.25,29.69s8.55,14.87,8.55,14.87Z" fill="#fff" opacity="0.11"/></g></g></svg>