<svg xmlns="http://www.w3.org/2000/svg" xmlns:xlink="http://www.w3.org/1999/xlink" width="898.135" height="38.232" viewBox="0 0 898.135 38.232">
  <defs>
    <linearGradient id="linear-gradient" x1="1" y1="0.5" x2="0" y2="0.5" gradientUnits="objectBoundingBox">
      <stop offset="0" stop-color="#283042"/>
      <stop offset="0.031" stop-color="#3e4660"/>
      <stop offset="0.065" stop-color="#515979"/>
      <stop offset="0.1" stop-color="#5e668b"/>
      <stop offset="0.137" stop-color="#666e96"/>
      <stop offset="0.178" stop-color="#69719a"/>
      <stop offset="0.266" stop-color="#6c709a"/>
      <stop offset="0.34" stop-color="#766d9b"/>
      <stop offset="0.409" stop-color="#88699d"/>
      <stop offset="0.474" stop-color="#a0649f"/>
      <stop offset="0.503" stop-color="#ae61a1"/>
      <stop offset="0.604" stop-color="#aa5f9e"/>
      <stop offset="0.689" stop-color="#a05b97"/>
      <stop offset="0.768" stop-color="#8e558a"/>
      <stop offset="0.843" stop-color="#764c79"/>
      <stop offset="0.916" stop-color="#564163"/>
      <stop offset="0.986" stop-color="#303347"/>
      <stop offset="1" stop-color="#283042"/>
    </linearGradient>
  </defs>
  <path id="Path_1529" data-name="Path 1529" d="M41.535,229.46C53.5,221.585,68.4,211.786,97.6,211.786c13.238,0,24.645,1.971,34.873,6.027h0c8.9,3.528,16.087,8.272,23.034,12.86,8.554,5.649,17.4,11.49,29.339,14.947a89.279,89.279,0,0,0,25.067,3.259c26.855,0,40.25-8.846,54.432-18.212,14.053-9.282,28.583-18.879,57.888-18.879a100.568,100.568,0,0,1,25.814,3.054h0c13.5,3.545,22.957,9.792,32.1,15.832,9.4,6.206,19.114,12.624,32.964,15.9h0a92.428,92.428,0,0,0,21.432,2.305c26.855,0,40.249-8.846,54.43-18.212,14.052-9.282,28.583-18.879,57.885-18.879a102.532,102.532,0,0,1,23.822,2.557h0c14.591,3.446,48.754,19.41,88.5,19.41,52.9,0,60.8-21.966,112.316-21.966a98.744,98.744,0,0,1,27.738,3.585h0c12.472,3.605,21.474,9.552,30.179,15.3,6.856,4.528,13.943,9.209,22.583,12.636h0c9.591,3.8,19.707,5.57,31.833,5.57,24.682,0,38.175-7.535,52.049-16.639l3.623.246v.124l-.17.111c-14.423,9.464-28.553,17.3-55.488,17.3-13.239,0-24.647-1.972-34.874-6.029h0c-8.9-3.527-16.087-8.271-23.033-12.859-8.555-5.648-17.4-11.49-29.339-14.947h0a89.291,89.291,0,0,0-25.069-3.258c-26.857,0-40.251,8.846-54.431,18.212-14.053,9.282-28.585,18.879-57.889,18.879a100.547,100.547,0,0,1-25.811-3.054h0c-13.5-3.544-22.957-9.791-32.1-15.832-9.4-6.2-19.111-12.622-32.962-15.9a92.36,92.36,0,0,0-21.434-2.305c-26.854,0-40.249,8.846-54.43,18.212-14.053,9.282-28.583,18.879-57.885,18.879-46.151,0-67.081-26.89-112.319-26.89-49.677,0-52.522,26.89-112.318,26.89a98.771,98.771,0,0,1-27.738-3.585h0c-12.472-3.607-21.474-9.553-30.179-15.3-6.856-4.528-13.945-9.209-22.586-12.636h0c-9.589-3.8-19.7-5.568-31.83-5.568-24.788,0-37.967,7.373-52.619,17.012l-3.625-.245v-.124Z" transform="translate(-41.365 -211.786)" opacity="0.26" fill="url(#linear-gradient)"/>
</svg>
