<svg height="186.001" viewBox="0 0 1366 186.001" width="1366" xmlns="http://www.w3.org/2000/svg" xmlns:xlink="http://www.w3.org/1999/xlink"><linearGradient id="a" gradientUnits="objectBoundingBox" x1=".349" x2="1.427" y1="1.086" y2="-3.109"><stop offset=".005" stop-color="#c90ca6"/><stop offset=".995" stop-color="#201154"/></linearGradient><linearGradient id="b" x1="-.006" x2="1.071" xlink:href="#a" y1="2.578" y2="-1.843"/><path d="m328.236 135.1c284.906-27.976 294.638 19.086 445.233 29.8 204.081 14.517 375.874-87.089 591.531 20.1v-186h-1366v82.043c41.388 27.364 136.518 72.977 329.236 54.057z" fill="url(#a)" transform="translate(1 1)"/><path d="m328.236 122.393c284.906-25.365 294.85-.9 446.865 15.347 136.942 14.637 374.241-59.556 589.9 37.627v-176.367h-1366.001v80.182c41.388 24.808 136.518 60.368 329.236 43.211z" fill="url(#b)" transform="translate(1 1)"/></svg>