<svg xmlns="http://www.w3.org/2000/svg" width="102.283" height="27.695" viewBox="0 0 102.283 27.695">
  <g id="Group_281" data-name="Group 281" transform="translate(-88.893 -48.31)">
    <g id="Group_279" data-name="Group 279">
      <g id="Group_278" data-name="Group 278">
        <path id="Path_1516" data-name="Path 1516" d="M131.2,75.795V60.433h4.151V72.444h5.915v3.351Z" fill="#fff"/>
        <path id="Path_1517" data-name="Path 1517" d="M158.1,68.093a8.29,8.29,0,0,1-1.9,5.9,8.644,8.644,0,0,1-11.112-.012,8.248,8.248,0,0,1-1.928-5.9,8.2,8.2,0,0,1,1.918-5.86,8.7,8.7,0,0,1,11.132-.015A8.294,8.294,0,0,1,158.1,68.093Zm-10.571,0q0,4.455,3.1,4.455a2.664,2.664,0,0,0,2.338-1.082,5.924,5.924,0,0,0,.762-3.373,5.966,5.966,0,0,0-.773-3.4,2.632,2.632,0,0,0-2.306-1.1Q147.527,63.6,147.526,68.093Z" fill="#fff"/>
        <path id="Path_1518" data-name="Path 1518" d="M167.038,66.8h6.631v8.28a18.208,18.208,0,0,1-5.936.924,7.173,7.173,0,0,1-5.49-2.059,8.241,8.241,0,0,1-1.94-5.873,7.718,7.718,0,0,1,2.123-5.791,8.165,8.165,0,0,1,5.947-2.07,13.185,13.185,0,0,1,2.738.273,11.643,11.643,0,0,1,2.243.694l-1.314,3.257a8.124,8.124,0,0,0-3.646-.819,3.465,3.465,0,0,0-2.811,1.182,5.112,5.112,0,0,0-.993,3.378,5.179,5.179,0,0,0,.9,3.284,3.118,3.118,0,0,0,2.59,1.129,7.619,7.619,0,0,0,1.7-.177V70h-2.744Z" fill="#fff"/>
        <path id="Path_1519" data-name="Path 1519" d="M191.176,68.093a8.294,8.294,0,0,1-1.9,5.9,8.646,8.646,0,0,1-11.113-.012,8.252,8.252,0,0,1-1.927-5.9,8.2,8.2,0,0,1,1.917-5.86,8.7,8.7,0,0,1,11.134-.015A8.3,8.3,0,0,1,191.176,68.093Zm-10.571,0q0,4.455,3.1,4.455a2.662,2.662,0,0,0,2.338-1.082,5.924,5.924,0,0,0,.762-3.373,5.975,5.975,0,0,0-.771-3.4,2.636,2.636,0,0,0-2.307-1.1Q180.6,63.6,180.6,68.093Z" fill="#fff"/>
      </g>
    </g>
    <g id="Group_280" data-name="Group 280">
      <path id="Path_1520" data-name="Path 1520" d="M95.107,72.455A3.107,3.107,0,1,1,92,69.348,3.107,3.107,0,0,1,95.107,72.455Z" fill="#fff"/>
      <path id="Path_1521" data-name="Path 1521" d="M120.723,65.046a10.522,10.522,0,0,0-12.292-10.365.983.983,0,0,1-1.147-.975v-.03a5.367,5.367,0,1,0-7,5.092,1.013,1.013,0,0,1,.592,1.434,10.514,10.514,0,1,0,19.844,4.844Z" fill="#fff"/>
    </g>
  </g>
</svg>
