<svg xmlns="http://www.w3.org/2000/svg" width="25" height="25" viewBox="0 0 25 25">
  <path id="icons8-cheap_2" d="M16.5,4A12.5,12.5,0,1,0,29,16.5,12.515,12.515,0,0,0,16.5,4Zm-.449,3.146V8.73a3.961,3.961,0,0,0-3.494,4.205c0,5.22,5.4,3.674,5.4,7.156,0,1.744-1.128,1.785-1.358,1.785-.209,0-1.584.111-1.584-2.557H12.066c0,4.519,3.278,4.88,3.766,4.947v1.575a9.364,9.364,0,0,1,.22-18.7Zm1.575.055A9.369,9.369,0,0,1,17.4,25.829V24.267a3.912,3.912,0,0,0,3.516-4.2c0-5.008-5.4-4.049-5.4-7.123,0-1.761.969-1.816,1.178-1.816.383,0,1.294.339,1.294,2.484h2.954c0-4.1-2.807-4.745-3.308-4.84Z" transform="translate(-4 -4)" fill="#4931c5"/>
</svg>
