<svg xmlns="http://www.w3.org/2000/svg" width="25" height="25.009" viewBox="0 0 25 25.009">
  <path id="icons8-medium_volume" d="M14.894,3,6.558,11.336H3.779A2.778,2.778,0,0,0,1,14.115v2.779a2.778,2.778,0,0,0,2.779,2.779H6.558l8.336,8.336Zm7.859,4.646L20.788,9.61a8.313,8.313,0,0,1,0,11.788l1.965,1.965A11.133,11.133,0,0,0,22.753,7.646ZM12.115,9.708V21.3L8.522,17.708l-.814-.814H3.779V14.115H7.708l.814-.814Zm6.708,1.867L16.859,13.54a2.756,2.756,0,0,1,0,3.929l1.965,1.967A5.581,5.581,0,0,0,18.823,11.575Z" transform="translate(-1 -3)" fill="#4931c5"/>
</svg>
